<svg width="24" height="25" viewBox="0 0 24 25" version="1.1" xmlns="http://www.w3.org/2000/svg" xmlns:xlink="http://www.w3.org/1999/xlink" xmlns:figma="http://www.figma.com/figma/ns">
<title>Bitcoin Talk</title>
<desc>Created using Figma</desc>
<g id="Canvas" transform="translate(-906 -4444)" figma:type="canvas">
<g id="Bitcoin Talk" figma:type="frame">
<g id="Fill 1" figma:type="vector">
<use xlink:href="#path0_fill" transform="translate(916.658 4456.23)" fill="#D4B965"/>
</g>
<g id="Fill 3" figma:type="vector">
<use xlink:href="#path1_fill" transform="translate(916.658 4451.47)" fill="#D4B965"/>
</g>
<g id="Fill 5" figma:type="vector-operation">
<use xlink:href="#path2_fill" transform="translate(906.001 4444)" fill="#D4B965"/>
</g>
</g>
</g>
<defs>
<path id="path0_fill" fill-rule="evenodd" d="M 2.047 0L 1.249 0L 0 0L 0 3.403L 1.755 3.403C 3.456 3.403 4.281 2.712 4.281 1.436C 4.281 0.16 2.526 0 2.047 0Z"/>
<path id="path1_fill" fill-rule="evenodd" d="M 3.51 1.437C 3.51 0.134 1.941 0 1.144 0L 0 0L 0 3.125L 2.112 3.125C 2.667 3.05 3.51 2.612 3.51 1.437Z"/>
<path id="path2_fill" fill-rule="evenodd" d="M 23.229 11.6152C 23.229 14.4941 22.175 17.123 20.44 19.1519L 20.882 24.7119L 16.352 22.2119C 14.904 22.8608 13.303 23.23 11.614 23.23C 5.19897 23.23 0 18.0298 0 11.6152C 0 5.2002 5.19897 0 11.614 0C 18.028 0 23.229 5.2002 23.229 11.6152ZM 13.316 20.0703L 13.316 17.4653L 13.662 17.4653C 16.931 17.4653 18.022 15.8691 18.022 13.6899C 18.022 11.5093 15.869 11.0044 15.869 11.0044C 15.869 11.0044 17.463 10.2061 17.198 8.23828C 16.9659 6.52637 14.941 5.88135 13.316 5.74219L 13.316 3.16016L 11.72 3.16016L 11.72 5.71191L 10.657 5.71191L 10.657 3.16016L 9.06097 3.16016L 9.06097 5.71191L 5.87097 5.71191L 5.87097 7.36133L 7.06696 7.36133C 7.599 7.36133 7.86499 7.521 7.86499 7.94629L 7.86499 15.019C 7.86499 15.604 7.57196 15.79 7.25397 15.79L 6.02997 15.79L 5.97595 17.4653L 9.06097 17.4653L 9.06097 20.0703L 10.657 20.0703L 10.657 17.4653L 11.72 17.4653L 11.72 20.0703L 13.316 20.0703Z"/>
</defs>
</svg>
