<svg width="21" height="21" viewBox="0 0 21 21" version="1.1" xmlns="http://www.w3.org/2000/svg" xmlns:xlink="http://www.w3.org/1999/xlink" xmlns:figma="http://www.figma.com/figma/ns">
<title>Facebook</title>
<desc>Created using Figma</desc>
<g id="Canvas" transform="translate(-908 -4267)" figma:type="canvas">
<g id="Facebook" figma:type="frame">
<g id="Fill 3" figma:type="vector">
<use xlink:href="#path0_fill" transform="translate(908.463 4267.46)" fill="#D4B965"/>
</g>
</g>
</g>
<defs>
<path id="path0_fill" fill-rule="evenodd" d="M 19.053 0L 1.113 0C 0.498 0 0 0.499 0 1.113L 0 19.054C 0 19.669 0.498 20.167 1.113 20.167L 10.771 20.167L 10.771 12.357L 8.143 12.357L 8.143 9.313L 10.771 9.313L 10.771 7.069C 10.771 4.464 12.362 3.046 14.686 3.046C 15.799 3.046 16.755 3.129 17.034 3.166L 17.034 5.888L 15.423 5.889C 14.158 5.889 13.914 6.489 13.914 7.371L 13.914 9.313L 16.928 9.313L 16.535 12.357L 13.914 12.357L 13.914 20.167L 19.053 20.167C 19.668 20.167 20.166 19.669 20.166 19.054L 20.166 1.113C 20.166 0.499 19.668 0 19.053 0Z"/>
</defs>
</svg>
