<svg width="26" height="32" viewBox="0 0 26 32" version="1.1" xmlns="http://www.w3.org/2000/svg" xmlns:xlink="http://www.w3.org/1999/xlink" xmlns:figma="http://www.figma.com/figma/ns">
<title>Marker Panama 2</title>
<desc>Created using Figma</desc>
<g id="Canvas" transform="translate(-584 615)" figma:type="canvas">
<g id="Marker Panama 2" figma:type="vector-operation">
<use xlink:href="#path0_fill" transform="translate(584 -614.586)" fill="url(#paint0_linear)"/>
</g>
</g>
<defs>
<linearGradient id="paint0_linear" x1="0" y1="0" x2="1" y2="0" gradientUnits="userSpaceOnUse" gradientTransform="matrix(-19.587 23.29 -19.2942 -23.6434 22.5588 3.82193)">
<stop offset="0" stop-color="#E2CD85"/>
<stop offset="0.222497" stop-color="#E9E8A4"/>
<stop offset="0.494878" stop-color="#A58F6B"/>
<stop offset="0.758052" stop-color="#B39F5C"/>
<stop offset="1" stop-color="#E3CC7B"/>
</linearGradient>
<path id="path0_fill" fill-rule="evenodd" d="M 12.8846 21.5513C 8.08059 21.5513 4.18634 17.6571 4.18634 12.8531C 4.18634 8.04903 8.08059 4.15479 12.8846 4.15479C 17.6886 4.15479 21.5832 8.04903 21.5832 12.8531C 21.5832 17.6571 17.6886 21.5513 12.8846 21.5513ZM 21.9958 3.77354C 16.9637 -1.25785 8.80589 -1.25785 3.7738 3.77354C -1.25793 8.80563 -1.25793 16.9638 3.7738 21.9955L 12.8846 31.1064L 21.9958 21.9955C 27.0275 16.9638 27.0275 8.80563 21.9958 3.77354Z"/>
</defs>
</svg>
