<svg width="215" height="31" viewBox="0 0 215 31" version="1.1" xmlns="http://www.w3.org/2000/svg" xmlns:xlink="http://www.w3.org/1999/xlink" xmlns:figma="http://www.figma.com/figma/ns">
<title>Orocrypt Logo</title>
<desc>Created using Figma</desc>
<g id="Canvas" transform="translate(-199 3388)" figma:type="canvas">
<g id="Orocrypt Logo" filter="url(#filter0_d)" figma:type="vector-operation">
<use xlink:href="#path0_fill" transform="translate(203.896 -3387.39)" fill="url(#paint0_linear)"/>
</g>
</g>
<defs>
<filter id="filter0_d" filterUnits="userSpaceOnUse" x="199" y="-3388" width="215" height="31" color-interpolation-filters="sRGB">
<feFlood flood-opacity="0" result="BackgroundImageFix"/>
<desc>type="dropShadow" x="0" y="4" size="4" spread="0" color="0,0,0,0.25" blend="normal"</desc>
<feColorMatrix in="SourceAlpha" type="matrix" values="0 0 0 0 0 0 0 0 0 0 0 0 0 0 0 0 0 0 255 0"/>
<feOffset dx="0" dy="4"/>
<feGaussianBlur stdDeviation="2"/>
<feColorMatrix type="matrix" values="0 0 0 0 0 0 0 0 0 0 0 0 0 0 0 0 0 0 0.25 0"/>
<feBlend mode="normal" in2="BackgroundImageFix" result="effect1_dropShadow"/>
<feBlend mode="normal" in="SourceGraphic" in2="effect1_dropShadow" result="shape"/>
</filter>
<linearGradient id="paint0_linear" x1="0" y1="0" x2="1" y2="0" gradientUnits="userSpaceOnUse" gradientTransform="matrix(-246.536 22.3919 -205.79 -26.8254 205.79 0)">
<stop offset="0" stop-color="#A58F6B"/>
<stop offset="0.178751" stop-color="#C49B5C"/>
<stop offset="0.313756" stop-color="#E2CD85"/>
<stop offset="0.43176" stop-color="#E9E8A4"/>
<stop offset="0.556202" stop-color="#A58F6B"/>
<stop offset="0.700634" stop-color="#B39F5C"/>
<stop offset="0.837113" stop-color="#E3CC7B"/>
<stop offset="1" stop-color="#E0DFAE"/>
</linearGradient>
<path id="path0_fill" fill-rule="evenodd" d="M 22.4767 11.196C 22.4767 17.6443 17.4815 22.3918 11.238 22.3918C 4.99484 22.3918 0 17.6443 0 11.196C 0 4.74756 4.99484 0 11.238 0C 17.4815 0 22.4767 4.74756 22.4767 11.196ZM 78.3302 11.196C 78.3302 17.6443 73.335 22.3918 67.0915 22.3918C 60.8484 22.3918 55.8535 17.6443 55.8535 11.196C 55.8535 4.74756 60.8484 0 67.0915 0C 73.335 0 78.3302 4.74756 78.3302 11.196ZM 106.089 17.9329C 103.848 20.9165 100.998 22.3918 96.7717 22.3918C 90.56 22.3918 85.7577 17.6443 85.7577 11.196C 85.7577 4.74756 90.6562 0 96.868 0C 100.902 0 103.688 1.57202 105.576 4.23486L 102.951 6.09546C 101.51 4.13843 99.6532 3.11157 96.7717 3.11157C 92.4491 3.11157 89.3113 6.57642 89.3113 11.196C 89.3113 15.9119 92.513 19.2803 96.8997 19.2803C 99.7175 19.2803 101.799 18.2209 103.431 16.1042L 106.089 17.9329ZM 119.375 14.0513L 122.929 14.0513L 123.346 14.0513L 128.212 22.1035L 131.958 22.1035L 126.708 13.4419C 129.429 12.4473 130.934 10.2656 130.934 7.21802C 130.934 3.07959 128.02 0.288574 122.929 0.288574L 115.949 0.288574L 115.949 22.1035L 119.375 22.1035L 119.375 14.0513ZM 146.398 13.4094L 146.398 22.1035L 149.824 22.1035L 149.824 13.3772L 157.22 0.288574L 153.634 0.288574L 148.159 10.073L 142.588 0.288574L 138.809 0.288574L 146.398 13.4094ZM 173.548 14.4041L 170.058 14.4041L 170.058 22.1035L 166.632 22.1035L 166.632 0.288574L 173.548 0.288574C 178.639 0.288574 181.553 3.11157 181.553 7.34644C 181.553 11.677 178.607 14.4041 173.548 14.4041ZM 195.896 22.1035L 199.323 22.1035L 199.323 3.33618L 205.79 3.33618L 205.79 0.288574L 189.429 0.288574L 189.429 3.33618L 195.896 3.33618L 195.896 22.1035ZM 170.058 11.3564L 170.058 3.33618L 173.42 3.33618C 176.622 3.33618 177.999 4.65137 177.999 7.34644C 177.999 10.0088 176.654 11.3564 173.42 11.3564L 170.058 11.3564ZM 119.375 3.33618L 119.375 11.0996L 122.802 11.0996C 126.035 11.0996 127.38 9.81641 127.38 7.21802C 127.38 4.58765 126.003 3.33618 122.802 3.33618L 119.375 3.33618ZM 67.0915 19.2805C 62.5769 19.2805 59.4075 15.8154 59.4075 11.1963C 59.4075 6.57666 62.5769 3.11157 67.0915 3.11157C 71.6062 3.11157 74.7762 6.57666 74.7762 11.1963C 74.7762 15.8154 71.6062 19.2805 67.0915 19.2805ZM 35.5871 11.0996L 35.5871 3.33618L 39.0128 3.33618C 42.2151 3.33618 43.5914 4.58765 43.5914 7.21802C 43.5914 9.81641 42.2468 11.0996 39.0128 11.0996L 35.5871 11.0996ZM 39.1411 14.0513L 35.5871 14.0513L 35.5871 22.1035L 32.1612 22.1035L 32.1612 0.288574L 39.1411 0.288574C 44.2319 0.288574 47.1457 3.07959 47.1457 7.21802C 47.1457 10.2656 45.6405 12.4473 42.9193 13.4419L 48.1701 22.1035L 44.4242 22.1035L 39.5573 14.0513L 39.1411 14.0513ZM 11.238 19.2805C 6.72336 19.2805 3.55394 15.8154 3.55394 11.1963C 3.55394 6.57666 6.72336 3.11157 11.238 3.11157C 15.7523 3.11157 18.9227 6.57666 18.9227 11.1963C 18.9227 15.8154 15.7523 19.2805 11.238 19.2805Z"/>
</defs>
</svg>
