<svg width="26" height="26" viewBox="0 0 26 26" version="1.1" xmlns="http://www.w3.org/2000/svg" xmlns:xlink="http://www.w3.org/1999/xlink" xmlns:figma="http://www.figma.com/figma/ns">
<title>Slack</title>
<desc>Created using Figma</desc>
<g id="Canvas" transform="translate(-906 -4207)" figma:type="canvas">
<g id="Slack" figma:type="frame">
<g id="Fill 1" figma:type="vector">
<use xlink:href="#path0_fill" transform="translate(916.412 4217.47)" fill="#D4B965"/>
</g>
<g id="Fill 2" figma:type="vector">
<use xlink:href="#path0_fill" transform="translate(916.412 4217.47)" fill="#D4B965"/>
</g>
<g id="Fill 3" figma:type="vector-operation">
<use xlink:href="#path1_fill" transform="translate(906 4207)" fill="#D4B965"/>
</g>
</g>
</g>
<defs>
<path id="path0_fill" fill-rule="evenodd" d="M 0 1.12982L 3.37409 0L 4.46609 3.25945L 1.092 4.38927L 0 1.12982Z"/>
<path id="path1_fill" fill-rule="evenodd" d="M 9.16852 1.06012C 17.862 -1.54828 21.6237 0.474185 24.2308 9.16754C 26.8391 17.8619 24.8182 21.6226 16.1235 24.231C 7.4289 26.8389 3.66834 24.817 1.06006 16.1226C -1.54815 7.42878 0.473881 3.66852 9.16852 1.06012ZM 18.2059 15.3541L 19.8439 14.8082C 20.5317 14.587 20.8957 13.838 20.6724 13.1514C 20.4502 12.4634 19.7021 12.0992 19.0154 12.3218L 17.3774 12.8677L 16.2855 9.61286L 17.9235 9.06696C 18.6101 8.84479 18.9753 8.09528 18.7519 7.40876C 18.5297 6.72077 17.7816 6.357 17.0938 6.57917L 15.4558 7.12506L 14.8909 5.42682C 14.6675 4.73883 13.9194 4.37506 13.2316 4.59821C 12.545 4.82038 12.181 5.56891 12.4031 6.25641L 12.9705 7.95465L 9.59278 9.08698L 9.02674 7.38874C 8.80451 6.70075 8.05524 6.33698 7.3686 6.55915C 6.68079 6.78131 6.318 7.52936 6.54017 8.21735L 7.10627 9.91559L 5.46827 10.4615C 4.78046 10.6837 4.41645 11.4317 4.63984 12.1197C 4.82062 12.6456 5.32642 12.9883 5.85236 13.0093C 5.99414 13.0294 6.15607 12.9883 6.2967 12.9478L 7.9347 12.4019L 9.02674 15.6578L 7.38874 16.2037C 6.70209 16.4258 6.33692 17.1744 6.56025 17.8619C 6.74225 18.3868 7.24805 18.7305 7.77283 18.7506C 7.91462 18.772 8.07654 18.7305 8.21833 18.6905L 9.85633 18.1446L 10.4213 19.8428C 10.6044 20.3687 11.1091 20.7125 11.635 20.7325C 11.7768 20.7525 11.9387 20.7125 12.0805 20.6724C 12.7672 20.4488 13.1312 19.7022 12.909 19.0142L 12.3417 17.316L 15.7194 16.1837L 16.2855 17.8819C 16.4675 18.4078 16.9721 18.7506 17.4991 18.772C 17.6398 18.7921 17.8005 18.7506 17.9435 18.7105C 18.6314 18.4883 18.9941 17.7403 18.772 17.0523L 18.2059 15.3541Z"/>
</defs>
</svg>
