<svg width="20" height="16" viewBox="0 0 20 16" version="1.1" xmlns="http://www.w3.org/2000/svg" xmlns:xlink="http://www.w3.org/1999/xlink" xmlns:figma="http://www.figma.com/figma/ns">
<title>Twitter</title>
<desc>Created using Figma</desc>
<g id="Canvas" transform="translate(-909 -4390)" figma:type="canvas">
<g id="Twitter" figma:type="frame">
<g id="Fill 3" figma:type="vector">
<use xlink:href="#path0_fill" transform="translate(909.358 4390.69)" fill="#D4B965"/>
</g>
</g>
</g>
<defs>
<path id="path0_fill" fill-rule="evenodd" d="M 18.651 1.794C 17.965 2.099 17.228 2.304 16.453 2.397C 17.243 1.923 17.85 1.173 18.136 0.28C 17.396 0.718 16.578 1.037 15.706 1.208C 15.007 0.464 14.013 0 12.913 0C 10.799 0 9.086 1.713 9.086 3.826C 9.086 4.127 9.12 4.419 9.185 4.698C 6.005 4.539 3.185 3.015 1.298 0.7C 0.968 1.265 0.78 1.923 0.78 2.624C 0.78 3.952 1.455 5.123 2.482 5.809C 1.855 5.789 1.265 5.617 0.749 5.33C 0.749 5.346 0.749 5.362 0.749 5.378C 0.749 7.232 2.068 8.779 3.818 9.131C 3.497 9.218 3.159 9.265 2.81 9.265C 2.564 9.265 2.324 9.241 2.09 9.196C 2.577 10.717 3.99 11.822 5.665 11.854C 4.355 12.88 2.705 13.491 0.912 13.491C 0.603 13.491 0.299 13.474 0 13.439C 1.693 14.524 3.704 15.157 5.865 15.157C 12.903 15.157 16.753 9.326 16.753 4.27C 16.753 4.104 16.749 3.939 16.742 3.775C 17.489 3.235 18.138 2.562 18.651 1.794Z"/>
</defs>
</svg>
